<?xml version="1.0" encoding="UTF-8"?>
<!DOCTYPE svg PUBLIC "-//W3C//DTD SVG 1.1//EN" "http://www.w3.org/Graphics/SVG/1.1/DTD/svg11.dtd">
<!-- Creator: CorelDRAW 2017 -->
<svg xmlns="http://www.w3.org/2000/svg" xml:space="preserve" width="861.974mm" height="125.273mm" version="1.1" style="shape-rendering:geometricPrecision; text-rendering:geometricPrecision; image-rendering:optimizeQuality; fill-rule:evenodd; clip-rule:evenodd"
viewBox="0 0 86197.42 12527.26"
 xmlns:xlink="http://www.w3.org/1999/xlink">
 <defs>
  <style type="text/css">
   <![CDATA[
    .fil1 {fill:#FEFEFE}
    .fil0 {fill:#E43024}
    .fil2 {fill:white;fill-rule:nonzero}
   ]]>
  </style>
 </defs>
 <g id="Layer_x0020_1">
  <metadata id="CorelCorpID_0Corel-Layer"/>
  <polygon class="fil0" points="2389.1,6746.01 2122.16,6361.31 2376.54,6361.31 2519.42,6573.29 2660.75,6361.31 2907.28,6361.31 2640.33,6741.28 2940.24,7173.12 2685.88,7173.12 2516.29,6917.18 2346.7,7173.12 2097.04,7173.12 "/>
  <path class="fil1" d="M3996.92 7028.66l-792.97 0 0 -168.04 792.97 0 0 168.04zm0 -336.05l-792.97 0 0 -168 792.97 0 0 168z"/>
  <path class="fil1" d="M4381.55 6361.31l222.96 0 0 811.81 -222.96 0 0 -811.81zm222.96 -125.62l-222.96 0 0 -183.74 222.96 0 0 183.74z"/>
  <path class="fil1" d="M4748.93 6361.31l211.99 0 0 113.03 4.72 0c56.52,-91.06 153.88,-135.01 248.08,-135.01 237.1,0 296.79,133.46 296.79,334.44l0 499.35 -222.99 0 0 -458.55c0,-133.44 -39.27,-199.38 -142.88,-199.38 -120.89,-0.01 -172.72,67.52 -172.72,232.41l0 425.52 -222.99 0 0 -811.81z"/>
  <path class="fil1" d="M6033.29 6507.33c-146.01,0 -196.29,125.62 -196.29,259.11 0.01,127.17 58.11,260.63 196.29,260.63 147.6,0 191.59,-128.76 191.59,-262.22 0.01,-131.9 -47.13,-257.52 -191.59,-257.52zm194.7 562.15l-3.1 0c-51.83,87.91 -142.92,125.62 -246.56,125.62 -244.93,-0.01 -364.28,-210.43 -364.28,-434.97 0,-218.28 120.89,-420.8 359.59,-420.8 95.78,0 190,40.82 241.79,120.9l-1.55 0 3.14 0 0 -408.28 222.95 0 0 1121.17 -211.98 0 0 -103.64z"/>
  <path class="fil1" d="M7122.95 6680.05c-20.42,-113.03 -69.08,-172.72 -177.45,-172.72 -141.32,0 -182.14,109.92 -185.28,172.72l362.73 0zm-362.72 141.31c6.27,141.32 75.38,205.71 199.42,205.71 89.5,0 161.75,-54.96 175.86,-105.2l196.29 0c-62.83,191.56 -196.29,273.23 -379.98,273.23 -255.98,-0.01 -414.55,-175.86 -414.55,-427.11 0,-243.38 167.99,-428.66 414.55,-428.66 276.33,0 409.82,232.38 394.09,482.03l-585.68 0z"/>
  <path class="fil1" d="M8049.31 6769.58c0,-128.76 -51.83,-262.25 -194.7,-262.25 -146.01,0 -193.14,130.35 -193.14,262.25 0,131.86 50.26,257.49 194.69,257.49 146.05,0 193.15,-125.63 193.15,-257.49zm-602.97 -408.27l211.99 0 0 103.65 3.14 0c53.37,-86.36 141.32,-125.63 241.82,-125.63 254.36,0 369.01,205.71 369.01,436.49 0,216.71 -119.34,419.28 -356.45,419.28 -97.36,-0.01 -190,-42.41 -243.38,-122.48l-3.14 0 0 386.25 -222.99 0 0 -1097.56z"/>
  <path class="fil1" d="M8920.71 6680.05c-20.43,-113.03 -69.08,-172.72 -177.45,-172.72 -141.32,0 -182.14,109.92 -185.28,172.72l362.73 0zm-362.73 141.31c6.28,141.32 75.39,205.71 199.42,205.71 89.51,0 161.75,-54.96 175.86,-105.2l196.29 0c-62.83,191.56 -196.29,273.23 -380.01,273.23 -255.94,-0.01 -414.52,-175.86 -414.52,-427.11 0.01,-243.38 168,-428.66 414.52,-428.66 276.37,0 409.86,232.38 394.12,482.03l-585.68 0z"/>
  <path class="fil1" d="M9244.1 6361.31l211.98 0 0 113.03 4.73 0c56.51,-91.06 153.84,-135.01 248.07,-135.01 237.11,0 296.76,133.46 296.76,334.44l0 499.35 -222.96 0 0 -458.55c0,-133.44 -39.26,-199.38 -142.87,-199.38 -120.9,-0.01 -172.72,67.52 -172.72,232.41l0 425.52 -222.99 0 0 -811.81z"/>
  <path class="fil1" d="M10528.46 6507.33c-146.02,0 -196.29,125.62 -196.29,259.11 0,127.17 58.1,260.63 196.28,260.63 147.61,0 191.56,-128.76 191.56,-262.22 0.01,-131.9 -47.09,-257.52 -191.55,-257.52zm194.7 562.15l-3.14 0c-51.79,87.91 -142.88,125.62 -246.53,125.62 -244.93,-0.01 -364.28,-210.43 -364.28,-434.97 0.01,-218.28 120.9,-420.8 359.59,-420.8 95.78,0 190,40.82 241.79,120.9l-1.54 0 3.13 0 0 -408.28 222.96 0 0 1121.17 -211.98 0 0 -103.64z"/>
  <path class="fil1" d="M11618.12 6680.05c-20.43,-113.03 -69.12,-172.72 -177.45,-172.72 -141.32,0 -182.14,109.92 -185.28,172.72l362.73 0zm-362.72 141.31c6.28,141.32 75.34,205.71 199.41,205.71 89.51,0 161.75,-54.96 175.86,-105.2l196.3 0c-62.84,191.56 -196.3,273.23 -380.02,273.23 -255.94,-0.01 -414.52,-175.86 -414.52,-427.11 0,-243.38 167.99,-428.66 414.52,-428.66 276.37,0 409.85,232.38 394.12,482.03l-585.67 0z"/>
  <path class="fil1" d="M11941.51 6361.31l211.99 0 0 113.03 4.72 0c56.51,-91.06 153.84,-135.01 248.07,-135.01 237.11,0 296.76,133.46 296.76,334.44l0 499.35 -222.96 0 0 -458.55c0,-133.44 -39.26,-199.38 -142.87,-199.38 -120.9,-0.01 -172.72,67.52 -172.72,232.41l0 425.52 -222.99 0 0 -811.81z"/>
  <path class="fil1" d="M13123.8 6361.31l163.31 0 0 149.15 -163.31 0 0 402c0,75.38 18.84,94.18 94.23,94.18 23.54,0 45.51,-1.54 69.07,-6.24l0.01 174.27c-37.67,6.28 -86.37,7.87 -130.32,7.87 -136.63,0 -255.97,-31.39 -255.97,-193.15l0 -478.93 -135.01 0 0 -149.15 135.01 0 0 -243.38 222.98 0 0 243.38z"/>
  <polygon class="fil1" points="13368.71,6051.95 13591.66,6051.95 13591.66,7173.12 13368.71,7173.12 "/>
  <path class="fil1" d="M14136.53 7275.18c-48.69,130.31 -125.63,183.69 -279.51,183.69 -45.54,0 -91.09,-3.14 -136.6,-7.86l0.01 -183.7c42.36,3.15 86.32,9.42 130.31,7.87 76.95,-7.87 102.06,-87.95 76.94,-152.33l-285.78 -761.54 238.69 0 183.69 555.87 3.13 0 177.46 -555.87 230.82 0 -339.16 913.87z"/>
  <path class="fil1" d="M15318.83 7027.07c152.29,0 197.83,-130.31 197.83,-259.08 0,-130.31 -45.54,-260.66 -197.84,-260.66 -150.73,0 -196.28,130.35 -196.28,260.66 0.01,128.77 45.54,259.08 196.29,259.08zm0 -687.74c255.94,0 420.82,169.58 420.82,428.66 0.01,257.5 -164.88,427.11 -420.83,427.11 -254.38,-0.01 -419.24,-169.61 -419.24,-427.11 0,-259.08 164.85,-428.66 419.25,-428.66z"/>
  <path class="fil1" d="M15821.22 6361.31l211.99 0 0 150.74 3.13 0c40.82,-102.06 150.74,-172.72 259.08,-172.72 15.7,0 34.53,3.14 48.65,7.84l0 207.25c-20.39,-4.69 -53.38,-7.83 -80.09,-7.83 -163.3,0 -219.81,117.76 -219.81,260.66l0 365.87 -222.95 0 0 -811.81z"/>
  <path class="fil1" d="M16968.98 6757.02c0,-131.94 -45.55,-249.69 -190.01,-249.69 -125.59,0 -180.55,109.92 -180.55,230.82 0.01,116.2 43.95,243.38 180.55,243.38 127.21,0 190.01,-108.34 190.01,-224.51zm211.99 364.27c0,133.46 -47.11,359.56 -420.84,359.56 -160.16,0 -346.99,-75.36 -358,-260.64l221.41 0c20.43,83.23 87.91,111.52 166.44,111.52 124.07,0 180.59,-84.85 179,-201.01l0 -106.79 -3.14 0c-48.68,84.8 -146.02,125.63 -243.39,125.63 -243.37,-0.01 -347.02,-185.28 -347.02,-408.28 0,-210.4 120.93,-401.95 348.61,-401.95 106.76,0 188.42,36.12 241.8,130.31l3.14 0 0 -108.33 211.99 0 0 759.98z"/>
  <path class="fil1" d="M17802.7 6775.82c-37.68,32.99 -116.21,34.58 -185.28,47.13 -69.1,14.15 -131.9,37.68 -131.9,119.35 0,83.19 64.38,103.61 136.59,103.61 174.31,0 180.59,-138.15 180.59,-186.83l0 -83.26zm-515.02 -164.85c12.56,-208.85 199.39,-271.64 381.52,-271.64 161.76,0 356.45,36.12 356.45,230.82l0.01 422.38c0,73.8 7.86,147.6 28.28,180.59l-226.12 0c-7.86,-25.12 -14.12,-51.82 -15.71,-78.53 -70.65,73.8 -174.3,100.51 -273.22,100.51 -153.88,-0.01 -276.37,-76.94 -276.37,-243.38 0.01,-183.73 138.19,-227.68 276.37,-246.56 136.63,-20.39 263.81,-15.66 263.81,-106.75 0,-95.79 -65.97,-109.93 -144.46,-109.93 -84.81,0 -139.78,34.54 -147.61,122.49l-222.95 0z"/>
  <path class="fil1" d="M18166.91 6361.31l211.99 0 0 113.03 4.72 0c56.51,-91.06 153.88,-135.01 248.11,-135.01 237.07,0 296.75,133.46 296.75,334.44l0.01 499.35 -223 0 0 -458.55c0,-133.44 -39.23,-199.38 -142.88,-199.38 -120.89,-0.01 -172.72,67.52 -172.72,232.41l0.01 425.52 -222.99 0 0 -811.81z"/>
  <path class="fil1" d="M19041.45 6361.31l222.98 0 0 811.81 -222.98 0 0 -811.81zm222.98 -125.62l-222.98 0 0 -183.74 222.98 0 0 183.74z"/>
  <polygon class="fil1" points="19358.59,7005.09 19781.01,6529.33 19390.02,6529.33 19390.02,6361.31 20074.62,6361.31 20074.62,6529.33 19652.24,7005.09 20104.47,7005.09 20104.47,7173.12 19358.59,7173.12 "/>
  <path class="fil1" d="M20738.76 6680.05c-20.38,-113.03 -69.07,-172.72 -177.41,-172.72 -141.32,0 -182.14,109.92 -185.28,172.72l362.69 0zm-362.69 141.31c6.28,141.32 75.39,205.71 199.39,205.71 89.51,0 161.75,-54.96 175.86,-105.2l196.29 0c-62.8,191.56 -196.29,273.23 -380.02,273.23 -255.89,-0.01 -414.51,-175.86 -414.51,-427.11 0.01,-243.38 168.03,-428.66 414.51,-428.66 276.38,0 409.86,232.38 394.16,482.03l-585.68 0z"/>
  <path class="fil1" d="M21446.91 6507.33c-146.03,0 -196.27,125.62 -196.27,259.11 0.01,127.17 58.07,260.63 196.25,260.63 147.62,0 191.56,-128.76 191.56,-262.22 0.01,-131.9 -47.1,-257.52 -191.54,-257.52zm194.73 562.15l-3.18 0c-51.83,87.91 -142.88,125.62 -246.5,125.62 -244.99,-0.01 -364.31,-210.43 -364.31,-434.97 0.01,-218.28 120.9,-420.8 359.59,-420.8 95.78,0 190,40.82 241.79,120.9l-1.58 0 3.13 0 0 -408.28 223.05 0 0 1121.17 -211.99 0 0 -103.64z"/>
  <polygon class="fil1" points="22666.84,6259.25 22330.85,6259.25 22330.85,6051.95 23249.42,6051.95 23249.42,6259.25 22913.4,6259.25 22913.4,7173.12 22666.84,7173.12 "/>
  <polygon class="fil1" points="23346.67,6051.95 24185.17,6051.95 24185.17,6259.25 23593.21,6259.25 23593.21,6499.49 24136.51,6499.49 24136.51,6691.05 23593.21,6691.05 23593.21,6965.83 24197.73,6965.83 24197.73,7173.12 23346.67,7173.12 "/>
  <path class="fil1" d="M24547.85 6965.83l219.81 0c142.88,0 279.51,-87.91 279.51,-336.02 0.01,-226.13 -78.53,-370.56 -323.5,-370.56l-175.82 0 0 706.58zm-246.56 -913.88l483.64 0c290.51,0 508.72,182.19 508.72,554.33 0.01,325.01 -166.41,566.84 -508.74,566.84l-483.62 0 0 -1121.17z"/>
  <path class="fil1" d="M26361.31 6680.05c-20.4,-113.03 -69.09,-172.72 -177.42,-172.72 -141.33,0 -182.14,109.92 -185.28,172.72l362.7 0zm-362.7 141.31c6.25,141.32 75.35,205.71 199.39,205.71 89.51,0 161.74,-54.96 175.86,-105.2l196.29 0c-62.79,191.56 -196.29,273.23 -380.02,273.23 -255.89,-0.01 -414.51,-175.86 -414.51,-427.11 0,-243.38 168.03,-428.66 414.51,-428.66 276.37,0 409.86,232.38 394.16,482.03l-585.68 0z"/>
  <polygon class="fil1" points="27102.42,7173.12 26854.31,7173.12 26576.4,6361.31 26810.32,6361.31 26981.49,6915.59 26984.62,6915.59 27155.76,6361.31 27377.19,6361.31 "/>
  <path class="fil1" d="M27953.4 6680.05c-20.4,-113.03 -69.09,-172.72 -177.43,-172.72 -141.3,0 -182.17,109.92 -185.28,172.72l362.71 0zm-362.71 141.31c6.25,141.32 75.36,205.71 199.39,205.71 89.52,0 161.75,-54.96 175.86,-105.2l196.29 0c-62.82,191.56 -196.29,273.23 -380.01,273.23 -255.94,-0.01 -414.52,-175.86 -414.52,-427.11 0.01,-243.38 168.03,-428.66 414.52,-428.66 276.37,0 409.82,232.38 394.12,482.03l-585.65 0z"/>
  <path class="fil1" d="M28276.81 6361.31l211.99 0 0 113.03 4.7 0c56.54,-91.06 153.9,-135.01 248.1,-135.01 237.1,0 296.79,133.46 296.79,334.44l0 499.35 -222.98 0 0 -458.55c0,-133.44 -39.28,-199.38 -142.89,-199.38 -120.91,-0.01 -172.75,67.52 -172.75,232.41l0 425.52 -222.96 0 0 -811.81z"/>
  <path class="fil1" d="M29459.08 6361.31l163.31 0 0 149.15 -163.31 0 0 402c0,75.38 18.87,94.18 94.22,94.18 23.57,0 45.55,-1.54 69.08,-6.24l0.01 174.27c-37.64,6.28 -86.34,7.87 -130.33,7.87 -136.58,0 -255.94,-31.39 -255.94,-193.15l0.02 -478.93 -135.06 0 0 -149.15 135.06 0 0 -243.38 222.94 0 0 243.38z"/>
  <polygon class="fil0" points="3061.15,2342.81 2015,2342.81 2015,1386.03 5256.3,1386.03 5256.3,2342.81 4210.52,2342.81 4210.52,5119 3061.15,5119 "/>
  <polygon class="fil0" points="5434.94,1386.03 8581.44,1386.03 8581.44,2342.81 6585.07,2342.81 6585.07,2807.98 8581.44,2807.98 8581.44,3697.06 6585.07,3697.06 6585.07,4162.27 8581.97,4162.27 8581.97,5119 5434.94,5119 "/>
  <path class="fil0" d="M9925.07 4162.27l449.79 0c716.46,0 821.19,-580.52 821.19,-931.2 0,-234.82 -73.59,-888.26 -904.95,-888.26l-366.03 0 0 1819.46zm-1150.06 -2776.24l1887.36 0c1244.11,0 1683.81,920.21 1683.81,1861.01 0,1145.31 -606.5,1871.96 -1908.39,1871.96l-1662.78 0 0 -3732.97z"/>
  <polygon class="fil0" points="13998.77,3680.48 13647.93,3098.69 13305.81,3680.48 12463.13,3680.48 13263.12,2504.1 12492.79,1378.87 13335.76,1378.87 13647.93,1935.08 13969.07,1378.87 14811.78,1378.87 14041.7,2504.1 14841.66,3680.48 "/>
  <g id="_2499635709664">
   <path class="fil2" d="M15561.82 3369.25c3.39,-71.12 9.32,-143.09 17.8,-215.9 8.47,-72.81 19.48,-146.47 33.05,-220.98 67.79,-362.37 223.72,-698.5 467.78,-1008.38 244.06,-309.88 632.18,-481.75 1164.37,-515.62 84.75,0 181.35,9.31 289.82,27.94 108.47,18.63 220.33,51.65 335.59,99.06 176.27,77.89 344.06,203.2 503.37,375.92 159.32,172.72 276.26,418.25 350.84,736.6l-518.63 0c-74.58,-270.93 -200.84,-472.44 -378.8,-604.52 -177.96,-132.08 -368.64,-198.12 -572.02,-198.12 -13.56,0 -26.27,0 -38.13,0 -11.86,0 -22.88,1.69 -33.05,5.08 -267.8,20.32 -514.4,151.55 -739.81,393.7 -225.42,242.15 -344.9,590.13 -358.47,1043.94 0,545.25 113.56,938.95 340.67,1181.1 227.12,242.15 476.26,364.91 747.44,368.3 3.39,0 5.93,0 7.62,0 1.7,0 4.24,0 7.63,0 264.4,0 508.46,-93.98 732.18,-281.94 223.72,-187.96 345.75,-437.73 366.09,-749.3l518.63 0c-6.77,44.03 -14.4,88.9 -22.88,134.62 -8.48,45.72 -19.49,92.29 -33.05,139.7 -88.13,301.41 -258.46,577.43 -511,828.04 -252.54,250.61 -570.33,375.92 -953.36,375.92 -579.65,16.93 -1011.84,-168.49 -1296.57,-556.26 -284.74,-387.77 -427.11,-840.74 -427.11,-1358.9zm3681.25 436.88c40.67,-419.95 157.62,-757.77 350.83,-1013.46 193.22,-255.69 489.82,-383.54 889.81,-383.54 413.54,0 703.36,121.07 869.46,363.22 166.1,242.15 269.49,507.15 310.16,795.02 10.17,74.51 16.95,149.01 20.34,223.52 3.4,74.51 5.09,147.32 5.09,218.44l-1962.66 0c10.17,304.8 83.9,524.93 221.18,660.4 137.29,135.47 288.97,203.2 455.07,203.2 6.78,0 14.41,0 22.88,0 8.48,0 16.11,0 22.89,0 149.14,-10.16 290.67,-62.65 424.56,-157.48 133.89,-94.83 231.35,-223.52 292.36,-386.08l442.36 0c-20.34,277.71 -132.2,494.45 -335.58,650.24 -203.38,155.79 -466.09,243.84 -788.11,264.16 -386.43,-13.55 -671.17,-119.38 -854.21,-317.5 -183.05,-198.12 -300,-415.71 -350.84,-652.78 -20.34,-81.28 -33.05,-161.71 -38.14,-241.3 -5.08,-79.59 -4.23,-154.94 2.55,-226.06zm483.03 -198.12l1479.62 0c-20.34,-270.93 -100,-476.67 -238.98,-617.22 -138.97,-140.55 -293.21,-210.82 -462.69,-210.82 -6.78,0 -13.57,0 -20.34,0 -6.78,0 -13.56,0 -20.34,0 -159.31,10.16 -310.16,83.82 -452.53,220.98 -142.37,137.16 -237.28,339.51 -284.74,607.06zm2521.96 1559.56l0 -2682.24 437.28 0 0 360.68c30.5,-111.76 130.51,-209.97 299.99,-294.64 169.48,-84.67 352.53,-130.39 549.13,-137.16 10.17,0 19.49,0 27.97,0 8.48,0 16.1,0 22.88,0 210.16,-3.39 398.29,54.19 564.39,172.72 166.1,118.53 238.98,325.12 218.64,619.76l0 1960.88 -437.28 0 0 -1879.6c0,-155.79 -49.15,-271.78 -147.45,-347.98 -98.3,-76.2 -211.86,-114.3 -340.67,-114.3 -20.34,0 -41.53,0.85 -63.56,2.54 -22.03,1.69 -43.21,4.23 -63.55,7.62 -159.32,30.48 -304.23,113.45 -434.74,248.92 -130.5,135.47 -195.75,323.43 -195.75,563.88l0 1518.92 -437.28 0zm2882.97 -320.04l0 -1920.24 -361.01 0 0 -441.96 361.01 0 0 -716.28 437.27 0 0 716.28 442.36 0 0 441.96 -442.36 0 0 1681.48c13.56,104.99 38.99,174.41 76.27,208.28 37.28,33.87 81.35,50.8 132.2,50.8 16.95,0 34.74,-0.85 53.39,-2.54 18.65,-1.69 38.13,-4.23 58.47,-7.62 20.34,-3.39 40.68,-5.93 61.02,-7.62 20.34,-1.69 40.67,-2.54 61.01,-2.54l0 401.32c-54.24,3.39 -107.63,7.62 -160.16,12.7 -52.54,5.08 -102.55,7.62 -150,7.62 -166.1,0 -298.3,-31.33 -396.6,-93.98 -98.3,-62.65 -155.93,-171.87 -172.87,-327.66zm1362.67 320.04l0 -2682.24 437.27 0 0 360.68c13.57,-16.93 26.28,-33.87 38.14,-50.8 11.86,-16.93 24.57,-33.87 38.13,-50.8 84.75,-111.76 181.36,-199.81 289.82,-264.16 108.47,-64.35 267.8,-88.05 477.96,-71.12l0 477.52c-277.96,0 -488.12,61.81 -630.49,185.42 -142.37,123.61 -213.56,315.81 -213.56,576.58l0 1518.92 -437.27 0zm1520.29 -721.36c20.34,-179.49 83.9,-342.9 190.67,-490.22 106.78,-147.32 349.99,-249.77 729.64,-307.34 454.22,-37.25 716.93,-83.82 788.12,-139.7 71.18,-55.88 103.38,-160.02 96.6,-312.42 0,-16.93 0,-33.87 0,-50.8 0,-16.93 0,-35.56 0,-55.88 0,-10.16 -1.69,-19.47 -5.08,-27.94 -3.39,-8.47 -8.48,-17.78 -15.25,-27.94 -37.29,-50.8 -113.56,-99.06 -228.81,-144.78 -115.26,-45.72 -237.29,-71.97 -366.09,-78.74 -10.17,0 -19.49,0 -27.97,0 -8.48,0 -17.79,0 -27.96,0 -145.76,0 -277.11,34.71 -394.06,104.14 -116.94,69.43 -175.42,193.89 -175.42,373.38l-401.68 0c0,-6.77 0,-12.7 0,-17.78 0,-5.08 0,-11.01 0,-17.78 -3.39,-6.77 -5.09,-12.7 -5.09,-17.78 0,-5.08 0,-11.01 0,-17.78 0,-13.55 0.86,-27.94 2.55,-43.18 1.69,-15.24 2.54,-31.33 2.54,-48.26 20.34,-179.49 109.32,-343.75 266.94,-492.76 157.62,-149.01 402.53,-223.52 734.72,-223.52 54.24,0 110.17,2.54 167.8,7.62 57.62,5.08 115.25,14.39 172.87,27.94 183.05,37.25 351.69,102.45 505.92,195.58 154.23,93.13 231.35,215.9 231.35,368.3l0 1640.84c0,67.73 16.1,126.15 48.3,175.26 32.2,49.11 85.59,73.66 160.17,73.66 10.17,0 21.19,-0.85 33.05,-2.54 11.86,-1.69 24.57,-4.23 38.13,-7.62l0 320.04 -279.65 40.64c-13.56,3.39 -27.97,5.93 -43.22,7.62 -15.25,1.69 -29.66,2.54 -43.22,2.54 -77.96,0 -140.68,-23.71 -188.13,-71.12 -47.45,-47.41 -84.75,-99.91 -111.86,-157.48 -13.56,-27.09 -23.73,-52.49 -30.51,-76.2 -6.77,-23.71 -13.56,-45.72 -20.34,-66.04 -172.87,138.85 -338.97,237.91 -498.29,297.18 -159.31,59.27 -306.76,88.9 -442.36,88.9 -254.23,0 -459.3,-77.89 -615.23,-233.68 -155.93,-155.79 -238.98,-326.81 -249.15,-513.08 0,-13.55 0,-27.09 0,-40.64 0,-13.55 0,-27.09 0,-40.64zm1764.36 -599.44c-27.12,33.87 -76.27,58.42 -147.46,73.66 -71.18,15.24 -152.53,27.94 -244.06,38.1 -37.28,6.77 -76.27,12.7 -116.94,17.78 -40.68,5.08 -81.36,9.31 -122.03,12.7 -162.71,27.09 -311.85,73.66 -447.45,139.7 -135.59,66.04 -203.38,185.42 -203.38,358.14 30.51,138.85 90.67,237.91 180.5,297.18 89.83,59.27 190.67,88.9 302.54,88.9 23.73,0 48.3,-0.85 73.72,-2.54 25.42,-1.69 50,-5.93 73.73,-12.7 145.76,-23.71 282.19,-79.59 409.31,-167.64 127.11,-88.05 204.23,-181.19 231.35,-279.4 3.39,-6.77 5.93,-13.55 7.62,-20.32 1.7,-6.77 2.55,-13.55 2.55,-20.32l0 -523.24zm1199.96 1320.8l0 -3718.56 442.36 0 0 3718.56 -442.36 0zm879.64 0l1321.99 -3718.56 599.98 0 1357.59 3718.56 -559.31 0 -401.68 -1082.04 -1398.26 0 -361.01 1082.04 -559.3 0zm1037.25 -1518.92l1123.7 0 -518.63 -1559.56 -605.07 1559.56zm2440.61 -40.64c61.01,-362.37 192.36,-647.7 394.05,-855.98 201.7,-208.28 472.02,-322.58 811,-342.9 61.01,0 127.11,5.08 198.3,15.24 71.18,10.16 145.76,28.79 223.72,55.88 149.14,54.19 288.97,152.4 419.48,294.64 130.51,142.24 209.32,353.91 236.43,635l-437.27 0c-23.74,-193.04 -93.22,-336.97 -208.47,-431.8 -115.26,-94.83 -242.37,-142.24 -381.35,-142.24 -16.94,0 -34.74,0.85 -53.38,2.54 -18.65,1.69 -36.45,4.23 -53.39,7.62 -183.05,30.48 -349.15,136.31 -498.29,317.5 -149.15,181.19 -218.64,436.03 -208.47,764.54 10.17,338.67 87.29,584.2 231.35,736.6 144.06,152.4 300.84,230.29 470.32,233.68 3.4,0 5.94,0 7.63,0 1.69,0 4.23,0 7.63,0 169.48,0 323.72,-59.27 462.69,-177.8 138.98,-118.53 213.56,-276.01 223.73,-472.44l437.27 0c0,318.35 -105.92,572.35 -317.79,762 -211.86,189.65 -478.8,292.95 -800.82,309.88 -37.28,-3.39 -76.27,-6.77 -116.95,-10.16 -40.67,-3.39 -81.35,-10.16 -122.03,-20.32 -247.45,-47.41 -472.01,-184.57 -673.7,-411.48 -201.7,-226.91 -285.59,-650.24 -251.69,-1270zm2603.31 838.2c20.34,-179.49 83.9,-342.9 190.67,-490.22 106.78,-147.32 349.99,-249.77 729.64,-307.34 454.22,-37.25 716.93,-83.82 788.11,-139.7 71.19,-55.88 103.39,-160.02 96.61,-312.42 0,-16.93 0,-33.87 0,-50.8 0,-16.93 0,-35.56 0,-55.88 0,-10.16 -1.69,-19.47 -5.08,-27.94 -3.4,-8.47 -8.48,-17.78 -15.26,-27.94 -37.28,-50.8 -113.55,-99.06 -228.8,-144.78 -115.26,-45.72 -237.29,-71.97 -366.09,-78.74 -10.17,0 -19.49,0 -27.97,0 -8.48,0 -17.8,0 -27.96,0 -145.77,0 -277.11,34.71 -394.06,104.14 -116.95,69.43 -175.42,193.89 -175.42,373.38l-401.68 0c0,-6.77 0,-12.7 0,-17.78 0,-5.08 0,-11.01 0,-17.78 -3.4,-6.77 -5.09,-12.7 -5.09,-17.78 0,-5.08 0,-11.01 0,-17.78 0,-13.55 0.85,-27.94 2.55,-43.18 1.69,-15.24 2.54,-31.33 2.54,-48.26 20.34,-179.49 109.32,-343.75 266.94,-492.76 157.62,-149.01 402.53,-223.52 734.72,-223.52 54.24,0 110.17,2.54 167.79,7.62 57.63,5.08 115.26,14.39 172.88,27.94 183.05,37.25 351.69,102.45 505.92,195.58 154.23,93.13 231.35,215.9 231.35,368.3l0 1640.84c0,67.73 16.1,126.15 48.3,175.26 32.2,49.11 85.59,73.66 160.17,73.66 10.16,0 21.18,-0.85 33.05,-2.54 11.86,-1.69 24.57,-4.23 38.13,-7.62l0 320.04 -279.65 40.64c-13.57,3.39 -27.97,5.93 -43.22,7.62 -15.26,1.69 -29.66,2.54 -43.22,2.54 -77.96,0 -140.68,-23.71 -188.13,-71.12 -47.45,-47.41 -84.75,-99.91 -111.86,-157.48 -13.56,-27.09 -23.73,-52.49 -30.51,-76.2 -6.78,-23.71 -13.56,-45.72 -20.34,-66.04 -172.87,138.85 -338.97,237.91 -498.29,297.18 -159.31,59.27 -306.77,88.9 -442.36,88.9 -254.23,0 -459.3,-77.89 -615.23,-233.68 -155.93,-155.79 -238.98,-326.81 -249.15,-513.08 0,-13.55 0,-27.09 0,-40.64 0,-13.55 0,-27.09 0,-40.64zm1764.36 -599.44c-27.12,33.87 -76.27,58.42 -147.46,73.66 -71.18,15.24 -152.54,27.94 -244.06,38.1 -37.28,6.77 -76.27,12.7 -116.94,17.78 -40.68,5.08 -81.36,9.31 -122.03,12.7 -162.71,27.09 -311.86,73.66 -447.45,139.7 -135.59,66.04 -203.38,185.42 -203.38,358.14 30.5,138.85 90.67,237.91 180.5,297.18 89.83,59.27 190.67,88.9 302.53,88.9 23.74,0 48.31,-0.85 73.73,-2.54 25.42,-1.69 50,-5.93 73.73,-12.7 145.76,-23.71 282.19,-79.59 409.31,-167.64 127.11,-88.05 204.23,-181.19 231.35,-279.4 3.39,-6.77 5.93,-13.55 7.62,-20.32 1.69,-6.77 2.55,-13.55 2.55,-20.32l0 -523.24zm1037.25 -279.4c54.24,-406.4 179.65,-700.19 376.26,-881.38 196.61,-181.19 408.46,-281.94 635.58,-302.26 13.56,-3.39 27.96,-5.08 43.22,-5.08 15.25,0 29.65,0 43.21,0 169.49,0 328.81,35.56 477.96,106.68 149.14,71.12 264.4,165.95 345.75,284.48l0 -1320.8 442.36 0 0 3718.56 -361.01 0c0,-40.64 0,-88.9 0,-144.78 0,-55.88 0,-114.3 0,-175.26 -67.79,135.47 -180.5,243.84 -338.12,325.12 -157.63,81.28 -327.96,121.92 -511,121.92 -23.74,0 -46.62,-0.85 -68.65,-2.54 -22.03,-1.69 -43.22,-4.23 -63.55,-7.62 -277.97,-30.48 -528.8,-177.8 -752.52,-441.96 -223.73,-264.16 -313.56,-689.19 -269.49,-1275.08zm483.04 238.76c-10.17,338.67 62.71,602.83 218.64,792.48 155.93,189.65 327.1,286.17 513.54,289.56 3.39,0 5.94,0 7.63,0 1.69,0 4.23,0 7.62,0 176.27,0 335.59,-86.36 477.96,-259.08 142.36,-172.72 213.55,-447.04 213.55,-822.96 0,-318.35 -74.58,-557.11 -223.72,-716.28 -149.15,-159.17 -311.85,-240.45 -488.12,-243.84 -3.4,0 -5.94,0 -7.63,0 -1.69,0 -4.23,0 -7.63,0 -186.44,-3.39 -356.77,77.05 -511,241.3 -154.23,164.25 -221.18,403.86 -200.84,718.82zm2399.93 0c40.67,-419.95 157.62,-757.77 350.83,-1013.46 193.22,-255.69 489.82,-383.54 889.81,-383.54 413.54,0 703.36,121.07 869.46,363.22 166.1,242.15 269.49,507.15 310.16,795.02 10.17,74.51 16.95,149.01 20.34,223.52 3.4,74.51 5.09,147.32 5.09,218.44l-1962.66 0c10.17,304.8 83.9,524.93 221.18,660.4 137.29,135.47 288.98,203.2 455.08,203.2 6.77,0 14.4,0 22.88,0 8.47,0 16.1,0 22.88,0 149.14,-10.16 290.67,-62.65 424.56,-157.48 133.89,-94.83 231.35,-223.52 292.36,-386.08l442.36 0c-20.33,277.71 -132.2,494.45 -335.58,650.24 -203.38,155.79 -466.09,243.84 -788.11,264.16 -386.43,-13.55 -671.17,-119.38 -854.21,-317.5 -183.05,-198.12 -299.99,-415.71 -350.84,-652.78 -20.34,-81.28 -33.05,-161.71 -38.13,-241.3 -5.09,-79.59 -4.24,-154.94 2.54,-226.06zm483.03 -198.12l1479.62 0c-20.34,-270.93 -100,-476.67 -238.97,-617.22 -138.98,-140.55 -293.22,-210.82 -462.7,-210.82 -6.78,0 -13.57,0 -20.34,0 -6.78,0 -13.56,0 -20.34,0 -159.31,10.16 -310.16,83.82 -452.53,220.98 -142.37,137.16 -237.28,339.51 -284.74,607.06zm2521.96 1559.56l0 -2682.24 437.28 0 0 360.68c37.28,-115.15 126.26,-218.44 266.94,-309.88 140.68,-91.44 300.84,-138.85 480.49,-142.24 44.07,0 88.13,3.39 132.2,10.16 44.07,6.77 88.13,16.93 132.2,30.48 88.13,27.09 176.27,70.27 264.4,129.54 88.13,59.27 171.19,139.7 249.15,241.3 54.24,-128.69 155.93,-226.91 305.07,-294.64 149.15,-67.73 306.77,-103.29 472.87,-106.68 203.38,0 387.28,57.57 551.68,172.72 164.4,115.15 241.52,298.03 231.35,548.64l0 2042.16 -442.36 0 0 -1838.96c-6.78,-176.11 -56.78,-303.11 -150,-381 -93.21,-77.89 -199.15,-118.53 -317.79,-121.92 -16.94,0 -33.05,0.85 -48.3,2.54 -15.25,1.69 -31.36,4.23 -48.3,7.62 -138.98,23.71 -266.09,92.29 -381.35,205.74 -115.25,113.45 -172.87,261.62 -172.87,444.5l0 1681.48 -442.36 0 0 -1920.24c0,-135.47 -46.62,-237.91 -139.83,-307.34 -93.21,-69.43 -199.15,-104.14 -317.79,-104.14 -13.56,0 -27.96,0.85 -43.22,2.54 -15.25,1.69 -29.65,2.54 -43.21,2.54 -135.6,20.32 -259.32,83.82 -371.18,190.5 -111.86,106.68 -167.79,258.23 -167.79,454.66l0 1681.48 -437.28 0zm4123.61 1041.4l0 -401.32c54.24,6.77 103.38,13.55 147.45,20.32 44.07,6.77 84.75,10.16 122.03,10.16 101.69,0 184.74,-35.56 249.15,-106.68 64.41,-71.12 125.42,-211.67 183.04,-421.64 3.4,-10.16 6.78,-21.17 10.17,-33.02 3.4,-11.85 6.78,-22.86 10.17,-33.02l-879.63 -2758.44 477.95 0 681.33 2082.8 762.69 -2082.8 477.96 0 -1240.65 3322.32c-54.23,142.24 -131.34,250.61 -231.34,325.12 -100.01,74.51 -204.24,121.92 -312.71,142.24 -20.34,3.39 -41.52,5.93 -63.55,7.62 -22.03,1.69 -43.22,2.54 -63.56,2.54 -61.02,0 -119.49,-6.77 -175.42,-20.32 -55.93,-13.55 -107.63,-33.87 -155.08,-60.96l0 5.08zm3523.62 -960.12c-54.24,0 -112.71,0.85 -175.42,2.54 -62.7,1.69 -124.57,-2.54 -185.58,-12.7 -203.39,-27.09 -388.12,-127 -554.22,-299.72 -166.1,-172.72 -233.9,-496.15 -203.39,-970.28l477.95 0c-3.39,23.71 -5.93,48.26 -7.62,73.66 -1.69,25.4 -2.54,51.65 -2.54,78.74 0,247.23 56.78,428.41 170.33,543.56 113.55,115.15 238.12,172.72 373.72,172.72 3.39,0 7.62,0 12.71,0 5.08,0 11.02,0 17.79,0 138.98,-6.77 266.95,-66.04 383.89,-177.8 116.95,-111.76 175.42,-262.47 175.42,-452.12l0 -2758.44 477.95 0 0 2758.44c0,257.39 -74.58,489.37 -223.72,695.96 -149.15,206.59 -394.91,320.04 -737.27,340.36l0 5.08zm1560.97 -1320.8c0,-382.69 86.44,-724.75 259.32,-1026.16 172.87,-301.41 499.98,-452.12 981.32,-452.12 30.51,0 61.02,0.85 91.53,2.54 30.51,1.69 61.01,4.23 91.52,7.62 254.23,37.25 488.12,165.95 701.67,386.08 213.56,220.13 320.33,580.81 320.33,1082.04 0,74.51 -7.62,160.87 -22.88,259.08 -15.25,98.21 -43.22,199.81 -83.89,304.8 -74.58,182.88 -196.61,350.52 -366.09,502.92 -169.49,152.4 -413.55,235.37 -732.19,248.92 -379.65,20.32 -681.33,-73.66 -905.05,-281.94 -223.73,-208.28 -335.59,-552.87 -335.59,-1033.78zm442.36 -40.64c16.95,345.44 101.7,597.75 254.23,756.92 152.54,159.17 316.94,238.76 493.21,238.76 3.39,0 5.93,0 7.63,0 1.69,0 4.23,0 7.62,0 199.99,-3.39 382.2,-99.91 546.6,-289.56 164.4,-189.65 234.74,-452.12 211.01,-787.4 -10.17,-325.12 -94.07,-569.81 -251.69,-734.06 -157.62,-164.25 -331.35,-246.38 -521.17,-246.38 -193.22,0 -368.63,88.05 -526.26,264.16 -157.62,176.11 -231.35,441.96 -221.18,797.56zm2359.26 -320.04c54.23,-406.4 179.65,-700.19 376.26,-881.38 196.6,-181.19 408.45,-281.94 635.57,-302.26 13.56,-3.39 27.96,-5.08 43.22,-5.08 15.25,0 29.66,0 43.22,0 169.48,0 328.8,35.56 477.95,106.68 149.14,71.12 264.4,165.95 345.75,284.48l0 -1320.8 442.36 0 0 3718.56 -361 0c0,-40.64 0,-88.9 0,-144.78 0,-55.88 0,-114.3 0,-175.26 -67.8,135.47 -180.51,243.84 -338.13,325.12 -157.62,81.28 -327.96,121.92 -511,121.92 -23.73,0 -46.61,-0.85 -68.64,-2.54 -22.03,-1.69 -43.22,-4.23 -63.56,-7.62 -277.96,-30.48 -528.8,-177.8 -752.52,-441.96 -223.72,-264.16 -313.55,-689.19 -269.48,-1275.08zm483.03 238.76c-10.17,338.67 62.71,602.83 218.64,792.48 155.93,189.65 327.11,286.17 513.54,289.56 3.4,0 5.94,0 7.63,0 1.69,0 4.23,0 7.63,0 176.27,0 335.58,-86.36 477.95,-259.08 142.37,-172.72 213.55,-447.04 213.55,-822.96 0,-318.35 -74.58,-557.11 -223.72,-716.28 -149.14,-159.17 -311.85,-240.45 -488.12,-243.84 -3.39,0 -5.94,0 -7.63,0 -1.69,0 -4.23,0 -7.62,0 -186.44,-3.39 -356.78,77.05 -511.01,241.3 -154.23,164.25 -221.18,403.86 -200.84,718.82zm2521.96 1361.44l0 -3759.2 442.36 0 0 1397c91.52,-121.92 206.78,-218.44 345.75,-289.56 138.98,-71.12 284.74,-113.45 437.28,-127 13.56,0 27.96,-0.85 43.22,-2.54 15.25,-1.69 31.36,-2.54 48.3,-2.54 199.99,0 382.2,57.57 546.59,172.72 164.4,115.15 263.55,292.95 297.45,533.4l0 2077.72 -437.27 0c0,-115.15 0,-232.83 0,-353.06 0,-120.23 0,-241.3 0,-363.22 0,-172.72 0,-344.59 0,-515.62 0,-171.03 0,-334.43 0,-490.22 6.77,-33.87 11.86,-65.19 15.25,-93.98 3.4,-28.79 5.09,-56.73 5.09,-83.82 0,-179.49 -51.7,-309.88 -155.08,-391.16 -103.39,-81.28 -224.58,-121.92 -363.55,-121.92 -23.73,0 -46.61,0.85 -68.64,2.54 -22.03,1.69 -44.91,4.23 -68.65,7.62 -162.7,30.48 -311.01,104.99 -444.9,223.52 -133.89,118.53 -200.84,270.93 -200.84,457.2l0 1722.12 -442.36 0zm2801.61 1117.6l0 -3799.84 401.69 0 0 320.04c10.16,-13.55 21.18,-27.94 33.05,-43.18 11.86,-15.24 26.27,-29.63 43.21,-43.18 77.96,-74.51 185.59,-143.09 322.88,-205.74 137.28,-62.65 287.28,-95.67 449.98,-99.06 64.41,0 131.35,6.77 200.84,20.32 69.5,13.55 138.14,35.56 205.93,66.04 61.02,23.71 120.34,55.03 177.96,93.98 57.62,38.95 113.55,83.82 167.79,134.62 10.17,10.16 20.34,22.01 30.51,35.56 10.17,13.55 20.34,27.09 30.51,40.64 84.74,118.53 162.7,276.86 233.89,474.98 71.18,198.12 108.47,410.63 111.86,637.54 0,37.25 -0.85,73.66 -2.54,109.22 -1.69,35.56 -5.94,71.97 -12.71,109.22 -16.95,145.63 -56.78,289.56 -119.49,431.8 -62.71,142.24 -153.39,276.01 -272.03,401.32 -74.57,84.67 -179.65,158.33 -315.24,220.98 -135.59,62.65 -283.05,93.98 -442.36,93.98 -30.51,0 -61.87,-1.69 -94.07,-5.08 -32.2,-3.39 -65.25,-8.47 -99.15,-15.24 -105.08,-20.32 -210.16,-60.11 -315.24,-119.38 -105.09,-59.27 -203.39,-144.78 -294.91,-256.54l0 1397 -442.36 0zm442.36 -2479.04c0,348.83 74.58,605.37 223.72,769.62 149.15,164.25 315.25,246.38 498.29,246.38 3.4,0 7.63,0 12.72,0 5.08,0 11.02,0 17.79,0 183.05,-6.77 350.84,-89.75 503.38,-248.92 152.53,-159.17 228.8,-382.69 228.8,-670.56 0,-23.71 0,-46.57 0,-68.58 0,-22.01 -1.69,-44.87 -5.08,-68.58 -33.9,-321.73 -122.03,-554.57 -264.4,-698.5 -142.37,-143.93 -296.6,-215.9 -462.7,-215.9 -193.21,0 -369.48,86.36 -528.8,259.08 -159.31,172.72 -233.89,404.71 -223.72,695.96zm2481.28 680.72l0 -2001.52 437.28 0 0 1920.24c0,176.11 44.07,305.65 132.2,388.62 88.13,82.97 193.21,124.46 315.24,124.46 30.51,0 60.17,-2.54 88.98,-7.62 28.82,-5.08 58.48,-11.01 88.98,-17.78 155.94,-44.03 298.3,-137.16 427.11,-279.4 128.81,-142.24 193.22,-318.35 193.22,-528.32l0 -1600.2 437.27 0 0 2682.24 -437.27 0 0 -279.4c-94.92,101.6 -203.39,184.57 -325.42,248.92 -122.03,64.35 -245.75,108.37 -371.17,132.08 -37.29,6.77 -73.73,12.7 -109.32,17.78 -35.6,5.08 -72.04,7.62 -109.32,7.62 -206.78,0 -386.43,-64.35 -538.97,-193.04 -152.54,-128.69 -228.81,-333.59 -228.81,-614.68zm2842.29 680.72l0 -2682.24 437.28 0 0 360.68c13.56,-16.93 26.27,-33.87 38.13,-50.8 11.86,-16.93 24.57,-33.87 38.14,-50.8 84.74,-111.76 181.35,-199.81 289.82,-264.16 108.47,-64.35 267.79,-88.05 477.95,-71.12l0 477.52c-277.96,0 -488.12,61.81 -630.49,185.42 -142.37,123.61 -213.55,315.81 -213.55,576.58l0 1518.92 -437.28 0zm1520.3 -1798.32c3.39,-71.12 9.31,-143.09 17.79,-215.9 8.48,-72.81 19.49,-146.47 33.05,-220.98 67.79,-362.37 223.72,-698.5 467.79,-1008.38 244.06,-309.88 632.18,-481.75 1164.37,-515.62 84.74,0 181.35,9.31 289.82,27.94 108.47,18.63 220.33,51.65 335.58,99.06 176.27,77.89 344.06,203.2 503.38,375.92 159.31,172.72 276.26,418.25 350.83,736.6l-518.62 0c-74.58,-270.93 -200.85,-472.44 -378.81,-604.52 -177.96,-132.08 -368.63,-198.12 -572.01,-198.12 -13.57,0 -26.28,0 -38.14,0 -11.86,0 -22.88,1.69 -33.05,5.08 -267.79,20.32 -514.39,151.55 -739.81,393.7 -225.41,242.15 -344.9,590.13 -358.46,1043.94 0,545.25 113.55,938.95 340.67,1181.1 227.11,242.15 476.26,364.91 747.43,368.3 3.4,0 5.94,0 7.63,0 1.69,0 4.23,0 7.63,0 264.4,0 508.46,-93.98 732.18,-281.94 223.72,-187.96 345.75,-437.73 366.09,-749.3l518.63 0c-6.78,44.03 -14.41,88.9 -22.88,134.62 -8.48,45.72 -19.49,92.29 -33.05,139.7 -88.13,301.41 -258.47,577.43 -511,828.04 -252.54,250.61 -570.33,375.92 -953.37,375.92 -579.64,16.93 -1011.83,-168.49 -1296.57,-556.26 -284.73,-387.77 -427.1,-840.74 -427.1,-1358.9z"/>
   <path class="fil2" d="M75412.58 4446.21c20.34,-179.49 83.9,-342.9 190.68,-490.22 106.77,-147.32 349.98,-249.77 729.63,-307.34 454.22,-37.25 716.93,-83.82 788.12,-139.7 71.18,-55.88 103.38,-160.02 96.6,-312.42 0,-16.93 0,-33.87 0,-50.8 0,-16.93 0,-35.56 0,-55.88 0,-10.16 -1.69,-19.47 -5.08,-27.94 -3.39,-8.47 -8.48,-17.78 -15.25,-27.94 -37.29,-50.8 -113.56,-99.06 -228.81,-144.78 -115.26,-45.72 -237.29,-71.97 -366.09,-78.74 -10.17,0 -19.49,0 -27.97,0 -8.47,0 -17.79,0 -27.96,0 -145.76,0 -277.11,34.71 -394.06,104.14 -116.94,69.43 -175.42,193.89 -175.42,373.38l-401.68 0c0,-6.77 0,-12.7 0,-17.78 0,-5.08 0,-11.01 0,-17.78 -3.39,-6.77 -5.08,-12.7 -5.08,-17.78 0,-5.08 0,-11.01 0,-17.78 0,-13.55 0.85,-27.94 2.54,-43.18 1.69,-15.24 2.54,-31.33 2.54,-48.26 20.34,-179.49 109.32,-343.75 266.94,-492.76 157.62,-149.01 402.53,-223.52 734.72,-223.52 54.24,0 110.17,2.54 167.8,7.62 57.62,5.08 115.25,14.39 172.87,27.94 183.05,37.25 351.69,102.45 505.92,195.58 154.23,93.13 231.35,215.9 231.35,368.3l0 1640.84c0,67.73 16.1,126.15 48.3,175.26 32.2,49.11 85.59,73.66 160.17,73.66 10.17,0 21.19,-0.85 33.05,-2.54 11.86,-1.69 24.57,-4.23 38.13,-7.62l0 320.04 -279.65 40.64c-13.56,3.39 -27.97,5.93 -43.22,7.62 -15.25,1.69 -29.66,2.54 -43.22,2.54 -77.96,0 -140.68,-23.71 -188.13,-71.12 -47.45,-47.41 -84.75,-99.91 -111.86,-157.48 -13.56,-27.09 -23.73,-52.49 -30.51,-76.2 -6.77,-23.71 -13.56,-45.72 -20.34,-66.04 -172.87,138.85 -338.97,237.91 -498.29,297.18 -159.31,59.27 -306.76,88.9 -442.36,88.9 -254.23,0 -459.3,-77.89 -615.23,-233.68 -155.93,-155.79 -238.98,-326.81 -249.15,-513.08 0,-13.55 0,-27.09 0,-40.64 0,-13.55 0,-27.09 0,-40.64zm1764.36 -599.44c-27.12,33.87 -76.27,58.42 -147.46,73.66 -71.18,15.24 -152.53,27.94 -244.06,38.1 -37.28,6.77 -76.27,12.7 -116.94,17.78 -40.68,5.08 -81.36,9.31 -122.03,12.7 -162.71,27.09 -311.85,73.66 -447.45,139.7 -135.59,66.04 -203.38,185.42 -203.38,358.14 30.51,138.85 90.67,237.91 180.5,297.18 89.83,59.27 190.67,88.9 302.54,88.9 23.73,0 48.3,-0.85 73.72,-2.54 25.43,-1.69 50,-5.93 73.73,-12.7 145.76,-23.71 282.19,-79.59 409.31,-167.64 127.11,-88.05 204.23,-181.19 231.35,-279.4 3.39,-6.77 5.93,-13.55 7.62,-20.32 1.7,-6.77 2.55,-13.55 2.55,-20.32l0 -523.24zm1240.64 1320.8l0 -2682.24 437.27 0 0 360.68c30.51,-111.76 130.51,-209.97 299.99,-294.64 169.49,-84.67 352.53,-130.39 549.14,-137.16 10.17,0 19.49,0 27.97,0 8.47,0 16.1,0 22.88,0 210.16,-3.39 398.29,54.19 564.39,172.72 166.1,118.53 238.97,325.12 218.63,619.76l0 1960.88 -437.27 0 0 -1879.6c0,-155.79 -49.16,-271.78 -147.45,-347.98 -98.3,-76.2 -211.87,-114.3 -340.67,-114.3 -20.34,0 -41.53,0.85 -63.56,2.54 -22.03,1.69 -43.22,4.23 -63.56,7.62 -159.31,30.48 -304.22,113.45 -434.73,248.92 -130.51,135.47 -195.76,323.43 -195.76,563.88l0 1518.92 -437.27 0zm2882.96 -320.04l0 -1920.24 -361 0 0 -441.96 361 0 0 -716.28 437.28 0 0 716.28 442.36 0 0 441.96 -442.36 0 0 1681.48c13.56,104.99 38.98,174.41 76.27,208.28 37.28,33.87 81.35,50.8 132.2,50.8 16.94,0 34.74,-0.85 53.39,-2.54 18.64,-1.69 38.13,-4.23 58.47,-7.62 20.34,-3.39 40.67,-5.93 61.01,-7.62 20.34,-1.69 40.68,-2.54 61.02,-2.54l0 401.32c-54.24,3.39 -107.63,7.62 -160.17,12.7 -52.53,5.08 -102.54,7.62 -149.99,7.62 -166.1,0 -298.3,-31.33 -396.6,-93.98 -98.3,-62.65 -155.93,-171.87 -172.88,-327.66zm1403.35 0l0 -1920.24 -361 0 0 -441.96 361 0 0 -716.28 437.28 0 0 716.28 442.36 0 0 441.96 -442.36 0 0 1681.48c13.56,104.99 38.98,174.41 76.27,208.28 37.28,33.87 81.35,50.8 132.19,50.8 16.95,0 34.75,-0.85 53.39,-2.54 18.65,-1.69 38.14,-4.23 58.48,-7.62 20.33,-3.39 40.67,-5.93 61.01,-7.62 20.34,-1.69 40.68,-2.54 61.02,-2.54l0 401.32c-54.24,3.39 -107.63,7.62 -160.17,12.7 -52.54,5.08 -102.54,7.62 -149.99,7.62 -166.1,0 -298.3,-31.33 -396.6,-93.98 -98.3,-62.65 -155.93,-171.87 -172.88,-327.66z"/>
  </g>
 </g>
</svg>
